<svg xmlns="http://www.w3.org/2000/svg" width="14" height="16" viewBox="0 0 14 16" fill="none">
  <path d="M 9.732 1 L 10.8 1 C 11.92 1 12.48 1 12.908 1.218 C 13.284 1.41 13.59 1.716 13.782 2.092 C 14 2.52 14 3.08 14 4.2 L 14 12.8 C 14 13.92 14 14.48 13.782 14.908 C 13.59 15.284 13.284 15.59 12.908 15.782 C 12.48 16 11.92 16 10.8 16 L 3.2 16 C 2.08 16 1.52 16 1.092 15.782 C 0.716 15.59 0.41 15.284 0.218 14.908 C 0 14.48 0 13.92 0 12.8 L 0 4.2 C 0 3.08 0 2.52 0.218 2.092 C 0.41 1.716 0.716 1.41 1.092 1.218 C 1.52 1 2.08 1 3.2 1 L 4.268 1 C 4.487 0.621 4.826 0.322 5.235 0.152 C 5.602 0 6.068 0 7 0 C 7.932 0 8.398 0 8.765 0.152 C 9.174 0.322 9.513 0.621 9.732 1 Z M 5.614 4.5 C 5.614 4.038 5.988 3.664 6.449 3.664 L 10.228 3.664 C 10.69 3.664 11.064 4.038 11.064 4.5 C 11.064 4.962 10.69 5.336 10.228 5.336 L 6.449 5.336 C 5.988 5.336 5.614 4.962 5.614 4.5 Z M 6.449 7.749 C 5.988 7.749 5.614 8.123 5.614 8.585 C 5.614 9.046 5.988 9.42 6.449 9.42 L 10.228 9.42 C 10.69 9.42 11.064 9.046 11.064 8.585 C 11.064 8.123 10.69 7.749 10.228 7.749 L 6.449 7.749 Z M 5.614 12.5 C 5.614 12.038 5.988 11.664 6.449 11.664 L 10.228 11.664 C 10.69 11.664 11.064 12.038 11.064 12.5 C 11.064 12.962 10.69 13.336 10.228 13.336 L 6.449 13.336 C 5.988 13.336 5.614 12.962 5.614 12.5 Z M 3.772 3.664 C 3.31 3.664 2.936 4.038 2.936 4.5 C 2.936 4.962 3.31 5.336 3.772 5.336 C 4.234 5.336 4.608 4.962 4.608 4.5 C 4.608 4.038 4.234 3.664 3.772 3.664 Z M 2.936 8.585 C 2.936 8.123 3.31 7.749 3.772 7.749 C 4.234 7.749 4.608 8.123 4.608 8.585 C 4.608 9.046 4.234 9.42 3.772 9.42 C 3.31 9.42 2.936 9.046 2.936 8.585 Z M 3.772 11.664 C 3.31 11.664 2.936 12.038 2.936 12.5 C 2.936 12.962 3.31 13.336 3.772 13.336 C 4.234 13.336 4.608 12.962 4.608 12.5 C 4.608 12.038 4.234 11.664 3.772 11.664 Z" fill="currentColor" fill-rule="evenodd"/>
</svg>
