<svg xmlns="http://www.w3.org/2000/svg" width="18.001" height="18" viewBox="0 0 18.001 18" fill="none">
  <path d="M 3.147 11.955 L 5.982 14.79 C 5.797 14.981 5.575 15.134 5.331 15.239 C 5.086 15.344 4.823 15.399 4.557 15.402 C 4.291 15.404 4.027 15.353 3.781 15.252 C 3.534 15.152 3.31 15.003 3.122 14.815 C 2.934 14.626 2.785 14.403 2.684 14.156 C 2.584 13.91 2.533 13.646 2.535 13.38 C 2.538 13.114 2.593 12.851 2.698 12.606 C 2.803 12.361 2.956 12.14 3.147 11.955 Z M 12.034 17.292 L 11.327 18 L 0 6.673 L 0.708 5.966 L 1.812 6.123 C 2.568 6.231 3.505 6.001 3.894 5.612 L 7.788 1.719 C 8.918 0.61 10.44 -0.007 12.023 0 C 13.606 0.008 15.122 0.64 16.242 1.759 C 17.361 2.879 17.993 4.395 18.001 5.978 C 18.008 7.561 17.391 9.083 16.282 10.213 L 12.388 14.107 C 11.999 14.496 11.769 15.433 11.877 16.189 L 12.034 17.292 Z" fill="currentColor" fill-rule="nonzero"/>
</svg>
