<svg xmlns="http://www.w3.org/2000/svg" width="13.251" height="12.968" viewBox="0 0 13.251 12.968" fill="none">
  <path d="M 0.241 1.206 C 0 1.678 0 2.297 0 3.534 L 0 6.773 C 0 8.009 0 8.628 0.241 9.1 C 0.452 9.516 0.79 9.854 1.206 10.065 C 1.678 10.306 2.297 10.306 3.534 10.306 L 3.534 12.516 C 3.534 12.662 3.534 12.736 3.564 12.776 C 3.591 12.811 3.631 12.833 3.675 12.835 C 3.726 12.838 3.787 12.797 3.908 12.714 L 7.467 10.306 L 9.717 10.306 C 10.954 10.306 11.573 10.306 12.045 10.065 C 12.461 9.854 12.798 9.516 13.01 9.1 C 13.251 8.628 13.251 8.009 13.251 6.773 L 13.251 3.534 C 13.251 2.297 13.251 1.678 13.01 1.206 C 12.798 0.79 12.461 0.452 12.045 0.241 C 11.573 0 10.954 0 9.717 0 L 3.534 0 C 2.297 0 1.678 0 1.206 0.241 C 0.79 0.452 0.452 0.79 0.241 1.206 Z" fill="currentColor" fill-rule="evenodd"/>
</svg>
