<svg xmlns="http://www.w3.org/2000/svg" width="10" height="10" viewBox="0 0 10 10" fill="none">
  <path d="M 8.438 6.25 L 7.813 6.25 C 7.73 6.25 7.65 6.283 7.592 6.342 C 7.533 6.4 7.5 6.48 7.5 6.563 L 7.5 8.75 L 1.25 8.75 L 1.25 2.5 L 4.063 2.5 C 4.145 2.5 4.225 2.467 4.283 2.408 C 4.342 2.35 4.375 2.27 4.375 2.188 L 4.375 1.563 C 4.375 1.48 4.342 1.4 4.283 1.342 C 4.225 1.283 4.145 1.25 4.063 1.25 L 0.938 1.25 C 0.689 1.25 0.45 1.349 0.275 1.525 C 0.099 1.7 0 1.939 0 2.188 L 0 9.063 C 0 9.311 0.099 9.55 0.275 9.725 C 0.45 9.901 0.689 10 0.938 10 L 7.813 10 C 8.061 10 8.3 9.901 8.475 9.725 C 8.651 9.55 8.75 9.311 8.75 9.063 L 8.75 6.563 C 8.75 6.48 8.717 6.4 8.658 6.342 C 8.6 6.283 8.52 6.25 8.438 6.25 Z M 9.531 0 L 7.031 0 C 6.614 0 6.405 0.506 6.699 0.801 L 7.397 1.499 L 2.637 6.257 C 2.593 6.301 2.558 6.353 2.535 6.409 C 2.511 6.466 2.499 6.528 2.499 6.589 C 2.499 6.651 2.511 6.712 2.535 6.769 C 2.558 6.826 2.593 6.878 2.637 6.921 L 3.079 7.363 C 3.123 7.407 3.175 7.442 3.232 7.465 C 3.289 7.489 3.35 7.501 3.412 7.501 C 3.473 7.501 3.534 7.489 3.591 7.465 C 3.648 7.442 3.7 7.407 3.744 7.363 L 8.502 2.604 L 9.199 3.301 C 9.492 3.594 10 3.389 10 2.969 L 10 0.469 C 10 0.344 9.951 0.225 9.863 0.137 C 9.775 0.049 9.656 0 9.531 0 L 9.531 0 Z" fill="currentColor" fill-rule="nonzero"/>
</svg>
