<svg xmlns="http://www.w3.org/2000/svg" width="12" height="15" viewBox="0 0 12 15" fill="none">
  <path d="M 2.571 0 C 1.151 0 0 1.119 0 2.5 L 0 12.5 C 0 13.881 1.151 15 2.571 15 L 9.429 15 C 10.849 15 12 13.881 12 12.5 L 12 4.024 C 12 3.582 11.819 3.158 11.498 2.845 L 9.074 0.488 C 8.752 0.176 8.316 0 7.861 0 L 2.571 0 Z M 6.879 5.814 C 6.879 5.365 6.485 5 6 5 C 5.515 5 5.121 5.365 5.121 5.814 L 5.121 8.257 L 3.81 8.257 C 3.5 8.257 3.32 8.582 3.5 8.815 L 5.523 11.439 C 5.757 11.742 6.243 11.742 6.477 11.439 L 8.5 8.815 C 8.68 8.582 8.5 8.257 8.19 8.257 L 6.879 8.257 L 6.879 5.814 Z" fill="currentColor" fill-rule="evenodd"/>
</svg>
