<svg xmlns="http://www.w3.org/2000/svg" width="16" height="16" viewBox="0 0 16 16" fill="none">
  <path d="M 3.833 14.65 L 4.8 13.683 L 2.317 11.2 L 1.35 12.167 L 1.35 13.3 L 2.7 13.3 L 2.7 14.65 L 3.833 14.65 Z M 9.35 4.85 C 9.35 4.772 9.328 4.717 9.283 4.683 C 9.25 4.639 9.194 4.617 9.117 4.617 C 9.083 4.617 9.056 4.622 9.033 4.633 C 8.989 4.656 8.961 4.672 8.95 4.683 L 3.217 10.417 C 3.206 10.428 3.189 10.456 3.167 10.5 C 3.156 10.522 3.15 10.55 3.15 10.583 C 3.15 10.661 3.172 10.722 3.217 10.767 C 3.25 10.8 3.306 10.817 3.383 10.817 L 3.467 10.817 C 3.511 10.794 3.544 10.772 3.567 10.75 L 9.283 5.033 C 9.317 5 9.333 4.972 9.333 4.95 C 9.344 4.928 9.35 4.894 9.35 4.85 Z M 8.783 2.817 L 13.183 7.217 L 4.4 16 L 0 16 L 0 11.6 L 8.783 2.817 Z M 16 3.833 C 16 4.011 15.967 4.183 15.9 4.35 C 15.833 4.517 15.739 4.661 15.617 4.783 L 13.85 6.533 L 9.467 2.15 L 11.217 0.4 C 11.306 0.3 11.45 0.2 11.65 0.1 C 11.817 0.033 11.989 0 12.167 0 C 12.344 0 12.517 0.033 12.683 0.1 C 12.883 0.2 13.033 0.3 13.133 0.4 L 15.617 2.867 C 15.739 3.011 15.833 3.161 15.9 3.317 C 15.967 3.483 16 3.656 16 3.833 Z" fill="currentColor" fill-rule="nonzero"/>
</svg>
