<svg xmlns="http://www.w3.org/2000/svg" width="15.063" height="18" viewBox="0 0 15.063 18" fill="none">
  <path d="M 14.084 2.934 C 14.084 2.655 13.666 2.446 13.457 2.655 C 10.18 5.931 5.998 1.888 2.582 3.77 L 2.446 2.376 C 2.725 2.097 2.864 1.679 2.794 1.261 C 2.725 0.494 2.027 -0.064 1.261 0.006 C 0.494 0.076 -0.064 0.842 0.006 1.609 C 0.076 2.097 0.354 2.446 0.703 2.655 L 2.237 17.224 C 2.306 17.712 2.725 18.061 3.213 17.991 C 3.701 17.921 4.049 17.503 3.979 17.015 L 3.491 12.066 C 3.561 12.066 3.561 12.066 3.631 11.996 C 7.186 10.044 10.044 15.342 14.854 10.741 C 14.994 10.602 15.063 10.532 15.063 10.393 L 14.084 2.934 Z" fill="currentColor" fill-rule="nonzero"/>
</svg>
