<svg xmlns="http://www.w3.org/2000/svg" width="16" height="16" viewBox="0 0 16 16" fill="none">
  <path d="M 0 8 C 0 3.6 3.6 0 8 0 C 12.4 0 16 3.6 16 8 C 16 12.4 12.4 16 8 16 C 3.6 16 0 12.4 0 8 Z M 10.045 4.86 C 10.045 4.01 9.345 3.31 8.495 3.31 C 7.635 3.31 6.945 4 6.945 4.86 C 6.945 5.71 7.645 6.41 8.495 6.41 C 9.355 6.41 10.045 5.71 10.045 4.86 Z M 8.115 12.69 C 9.385 12.69 10.155 11.81 10.185 11.77 C 10.265 11.68 10.265 11.55 10.195 11.48 C 10.115 11.38 9.995 11.35 9.885 11.41 C 9.775 11.46 9.425 11.61 9.175 11.61 L 9.035 11.59 C 8.915 11.53 8.695 11.42 8.925 10.74 L 9.335 9.52 C 9.575 8.8 9.535 8.16 9.215 7.69 C 8.965 7.31 8.545 7.09 8.035 7.06 C 6.685 6.98 5.845 7.93 5.815 7.97 C 5.735 8.06 5.735 8.19 5.805 8.29 C 5.885 8.39 6.015 8.41 6.115 8.36 C 6.225 8.3 6.575 8.15 6.825 8.15 L 6.965 8.17 C 7.085 8.23 7.305 8.34 7.075 9.02 L 6.665 10.24 C 6.425 10.95 6.475 11.59 6.785 12.06 C 7.035 12.44 7.455 12.66 7.965 12.69 L 8.115 12.69 Z" fill="currentColor" fill-rule="evenodd"/>
</svg>
