<svg xmlns="http://www.w3.org/2000/svg" width="18" height="14" viewBox="0 0 18 14" fill="none">
  <path d="M 0.327 1.638 C 0 2.28 0 3.12 0 4.8 L 0 9.2 C 0 10.88 0 11.72 0.327 12.362 C 0.615 12.926 1.074 13.385 1.638 13.673 C 2.28 14 3.12 14 4.8 14 L 13.2 14 C 14.88 14 15.72 14 16.362 13.673 C 16.926 13.385 17.385 12.926 17.673 12.362 C 18 11.72 18 10.88 18 9.2 L 18 4.8 C 18 3.12 18 2.28 17.673 1.638 C 17.385 1.074 16.926 0.615 16.362 0.327 C 15.72 0 14.88 0 13.2 0 L 4.8 0 C 3.12 0 2.28 0 1.638 0.327 C 1.074 0.615 0.615 1.074 0.327 1.638 Z M 10.752 3.774 C 10.563 3.585 10.697 3.261 10.964 3.261 L 15.233 3.261 C 15.509 3.261 15.733 3.485 15.733 3.761 L 15.733 8.03 C 15.733 8.298 15.41 8.431 15.221 8.242 L 13.665 6.686 L 10.565 9.787 C 9.978 10.373 9.027 10.372 8.441 9.784 L 6.567 7.902 L 3.844 10.625 C 3.454 11.015 2.821 11.015 2.43 10.625 C 2.04 10.234 2.04 9.601 2.43 9.21 L 5.507 6.133 C 6.094 5.546 7.046 5.547 7.631 6.135 L 9.505 8.018 L 12.251 5.272 L 10.752 3.774 Z" fill="currentColor" fill-rule="evenodd"/>
</svg>
