<svg xmlns="http://www.w3.org/2000/svg" width="17.063" height="14" viewBox="0 0 17.063 14" fill="none">
  <path d="M 4 2 C 2.895 2 2 2.895 2 4 L 2 10 C 2 11.105 2.895 12 4 12 L 8 12 C 8.552 12 9 12.448 9 13 C 9 13.552 8.552 14 8 14 L 4 14 C 1.791 14 0 12.209 0 10 L 0 4 C 0 1.791 1.791 0 4 0 L 8 0 C 8.552 0 9 0.448 9 1 C 9 1.552 8.552 2 8 2 L 4 2 Z" fill="currentColor" fill-rule="nonzero"/>
  <path d="M 4.783 7 C 4.783 6.172 5.455 5.5 6.283 5.5 L 10.783 5.5 L 10.783 3.263 C 10.783 2.734 11.381 2.427 11.811 2.734 L 16.644 6.186 C 17.202 6.585 17.202 7.415 16.644 7.814 L 11.811 11.266 C 11.381 11.573 10.783 11.266 10.783 10.737 L 10.783 8.5 L 6.283 8.5 C 5.455 8.5 4.783 7.828 4.783 7 Z" fill="currentColor" fill-rule="nonzero"/>
</svg>
