<svg xmlns="http://www.w3.org/2000/svg" width="16" height="16" viewBox="0 0 16 16" fill="none">
  <path d="M 15.4 2.572 L 14.611 3.361 L 13.848 4.124 L 12.877 5.095 C 12.613 5.113 12.349 5.074 12.102 4.981 C 11.854 4.888 11.63 4.743 11.443 4.556 C 11.256 4.37 11.112 4.145 11.019 3.898 C 10.926 3.651 10.887 3.386 10.905 3.123 L 11.876 2.152 L 12.638 1.389 L 13.427 0.6 C 13.452 0.575 13.466 0.542 13.466 0.507 C 13.466 0.472 13.452 0.439 13.427 0.414 C 13.418 0.405 13.407 0.399 13.396 0.393 L 13.396 0.393 L 13.394 0.392 C 13.387 0.389 13.38 0.386 13.373 0.383 C 12.812 0.131 12.203 0.001 11.588 0 C 9.151 0 7.176 1.975 7.176 4.412 C 7.176 4.877 7.249 5.325 7.382 5.746 L 2.781 10.348 C 1.241 10.373 0 11.627 0 13.173 C 0 14.734 1.266 16 2.827 16 C 4.373 16 5.627 14.759 5.652 13.219 L 10.254 8.617 C 10.685 8.754 11.135 8.824 11.588 8.824 C 14.025 8.824 16 6.848 16 4.412 C 16 3.775 15.86 3.174 15.617 2.628 C 15.614 2.619 15.611 2.611 15.607 2.604 L 15.602 2.593 L 15.601 2.594 C 15.596 2.587 15.592 2.578 15.586 2.572 C 15.561 2.547 15.527 2.533 15.493 2.533 C 15.458 2.534 15.424 2.547 15.4 2.572 L 15.4 2.572 Z M 3.995 13.173 C 3.995 13.483 3.872 13.78 3.653 13.999 C 3.434 14.218 3.137 14.341 2.827 14.341 C 2.517 14.341 2.22 14.218 2.001 13.999 C 1.782 13.78 1.659 13.483 1.659 13.173 C 1.659 12.863 1.782 12.566 2.001 12.347 C 2.22 12.128 2.517 12.004 2.827 12.004 C 3.137 12.004 3.434 12.128 3.653 12.347 C 3.872 12.566 3.995 12.863 3.995 13.173 L 3.995 13.173 Z" fill="currentColor" fill-rule="nonzero"/>
</svg>
