<svg xmlns="http://www.w3.org/2000/svg" width="18" height="18" viewBox="0 0 18 18" fill="none">
  <path d="M 4.5 0 C 3.259 0 2.25 1.009 2.25 2.25 L 2.25 5.625 L 4.5 5.625 L 4.5 2.25 L 12.47 2.25 L 13.5 3.28 L 13.5 5.625 L 15.75 5.625 L 15.75 3.28 C 15.75 2.682 15.514 2.109 15.093 1.688 L 14.063 0.657 C 13.641 0.236 13.068 0 12.47 0 L 4.5 0 Z M 13.5 12.375 L 13.5 15.75 L 4.5 15.75 L 4.5 12.375 L 13.5 12.375 Z M 15.75 13.5 L 16.875 13.5 C 17.497 13.5 18 12.997 18 12.375 L 18 9 C 18 7.759 16.991 6.75 15.75 6.75 L 2.25 6.75 C 1.009 6.75 0 7.759 0 9 L 0 12.375 C 0 12.997 0.503 13.5 1.125 13.5 L 2.25 13.5 L 2.25 15.75 C 2.25 16.991 3.259 18 4.5 18 L 13.5 18 C 14.741 18 15.75 16.991 15.75 15.75 L 15.75 13.5 Z M 15.188 8.719 C 15.411 8.719 15.626 8.808 15.784 8.966 C 15.942 9.124 16.031 9.339 16.031 9.563 C 16.031 9.786 15.942 10.001 15.784 10.159 C 15.626 10.317 15.411 10.406 15.188 10.406 C 14.964 10.406 14.749 10.317 14.591 10.159 C 14.433 10.001 14.344 9.786 14.344 9.563 C 14.344 9.339 14.433 9.124 14.591 8.966 C 14.749 8.808 14.964 8.719 15.188 8.719 Z" fill="currentColor" fill-rule="nonzero"/>
</svg>
