<svg xmlns="http://www.w3.org/2000/svg" width="9.198" height="16" viewBox="0 0 9.198 16" fill="none">
  <path d="M 3.815 8.295 C 4.463 7.124 5.709 6.434 6.434 5.398 C 7.2 4.312 6.771 2.282 4.598 2.282 C 3.175 2.282 2.476 3.36 2.181 4.253 L 0 3.335 C 0.598 1.541 2.223 0 4.589 0 C 6.568 0 7.924 0.901 8.615 2.029 C 9.204 2.998 9.549 4.808 8.64 6.156 C 7.629 7.646 6.661 8.101 6.139 9.061 C 5.928 9.448 5.844 9.701 5.844 10.947 L 3.411 10.947 C 3.402 10.291 3.301 9.221 3.815 8.295 Z M 6.282 14.316 C 6.282 15.242 5.524 16 4.598 16 C 3.672 16 2.914 15.242 2.914 14.316 C 2.914 13.389 3.672 12.632 4.598 12.632 C 5.524 12.632 6.282 13.389 6.282 14.316 Z" fill="currentColor" fill-rule="nonzero"/>
</svg>
