<svg xmlns="http://www.w3.org/2000/svg" width="20" height="18" viewBox="0 0 20 18" fill="none">
  <path d="M 7.976 1.184 C 8.897 -0.395 11.103 -0.395 12.024 1.184 L 19.654 14.267 C 20.609 15.905 19.474 18 17.63 18 L 2.37 18 C 0.526 18 -0.609 15.905 0.346 14.267 L 7.976 1.184 Z" fill="currentColor" fill-rule="nonzero"/>
  <path d="M 0.346 14.267 L -0.517 13.763 L 0.346 14.267 Z M 19.654 14.267 L 20.517 13.763 L 20.517 13.763 L 19.654 14.267 Z M 12.024 1.184 L 11.16 1.688 L 11.16 1.688 L 12.024 1.184 Z M 7.976 1.184 L 8.84 1.688 L 8.84 1.688 L 7.976 1.184 Z M 11.16 1.688 L 18.79 14.771 L 20.517 13.763 L 12.887 0.681 L 11.16 1.688 Z M 1.21 14.771 L 8.84 1.688 L 7.113 0.681 L -0.517 13.763 L 1.21 14.771 Z M 17.63 17 L 2.37 17 L 2.37 19 L 17.63 19 L 17.63 17 Z M -0.517 13.763 C -1.829 16.011 -0.311 19 2.37 19 L 2.37 17 C 1.363 17 0.61 15.8 1.21 14.771 L -0.517 13.763 Z M 18.79 14.771 C 19.39 15.8 18.637 17 17.63 17 L 17.63 19 C 20.311 19 21.829 16.011 20.517 13.763 L 18.79 14.771 Z M 12.887 0.681 C 11.58 -1.56 8.42 -1.56 7.113 0.681 L 8.84 1.688 C 9.375 0.771 10.625 0.771 11.16 1.688 L 12.887 0.681 Z" fill="currentColor" fill-rule="nonzero"/>
</svg>
