<svg xmlns="http://www.w3.org/2000/svg" width="18" height="14" viewBox="0 0 18 14" fill="none">
  <path d="M 0 4 C 0 2.6 0 1.9 0.272 1.365 C 0.512 0.895 0.895 0.512 1.365 0.272 C 1.9 0 2.6 0 4 0 L 5.517 0 C 6.055 0 6.324 0 6.562 0.082 C 6.772 0.154 6.964 0.273 7.123 0.428 C 7.302 0.604 7.423 0.845 7.663 1.327 L 8 2 L 14 2 C 15.4 2 16.1 2 16.635 2.272 C 17.105 2.512 17.488 2.895 17.728 3.365 C 18 3.9 18 4.6 18 6 L 18 10 C 18 11.4 18 12.1 17.728 12.635 C 17.488 13.105 17.105 13.488 16.635 13.728 C 16.1 14 15.4 14 14 14 L 4 14 C 2.6 14 1.9 14 1.365 13.728 C 0.895 13.488 0.512 13.105 0.272 12.635 C 0 12.1 0 11.4 0 10 L 0 4 Z" fill="currentColor" fill-rule="nonzero"/>
</svg>
