<svg xmlns="http://www.w3.org/2000/svg" width="16.002" height="16" viewBox="0 0 16.002 16" fill="none">
  <path d="M 9.251 11.999 L 6.751 11.999 C 6.335 11.999 6.001 11.665 6.001 11.249 L 6.001 5.999 L 3.26 5.999 C 2.704 5.999 2.425 5.327 2.819 4.933 L 7.573 0.176 C 7.807 -0.059 8.192 -0.059 8.426 0.176 L 13.183 4.933 C 13.577 5.327 13.299 5.999 12.742 5.999 L 10.001 5.999 L 10.001 11.249 C 10.001 11.665 9.667 11.999 9.251 11.999 Z M 16.002 11.749 L 16.002 15.25 C 16.002 15.666 15.668 16 15.252 16 L 0.75 16 C 0.334 16 0 15.666 0 15.25 L 0 11.749 C 0 11.334 0.334 10.999 0.75 10.999 L 5.001 10.999 L 5.001 11.249 C 5.001 12.215 5.785 13 6.751 13 L 9.251 13 C 10.217 13 11.002 12.215 11.002 11.249 L 11.002 10.999 L 15.252 10.999 C 15.668 10.999 16.002 11.334 16.002 11.749 Z M 12.127 14.5 C 12.127 14.156 11.845 13.875 11.502 13.875 C 11.158 13.875 10.877 14.156 10.877 14.5 C 10.877 14.844 11.158 15.125 11.502 15.125 C 11.845 15.125 12.127 14.844 12.127 14.5 Z M 14.127 14.5 C 14.127 14.156 13.846 13.875 13.502 13.875 C 13.158 13.875 12.877 14.156 12.877 14.5 C 12.877 14.844 13.158 15.125 13.502 15.125 C 13.846 15.125 14.127 14.844 14.127 14.5 Z" fill="currentColor" fill-rule="nonzero"/>
</svg>
