<svg xmlns="http://www.w3.org/2000/svg" width="18" height="18" viewBox="0 0 18 18" fill="none">
  <path d="M 17.777 7.632 L 15.765 7.032 C 15.626 6.547 15.435 6.078 15.195 5.634 L 16.18 3.792 C 16.217 3.723 16.23 3.643 16.218 3.565 C 16.206 3.487 16.17 3.415 16.114 3.36 L 14.678 1.92 C 14.623 1.864 14.551 1.827 14.473 1.816 C 14.395 1.804 14.316 1.817 14.246 1.854 L 12.414 2.832 C 11.965 2.58 11.49 2.379 10.997 2.232 L 10.396 0.246 C 10.371 0.173 10.323 0.11 10.259 0.065 C 10.195 0.021 10.119 -0.002 10.042 0 L 8.012 0 C 7.934 0 7.858 0.026 7.795 0.072 C 7.733 0.118 7.687 0.184 7.663 0.258 L 7.063 2.238 C 6.566 2.384 6.086 2.586 5.634 2.838 L 3.832 1.866 C 3.762 1.829 3.682 1.816 3.605 1.828 C 3.527 1.839 3.455 1.876 3.399 1.932 L 1.94 3.354 C 1.884 3.409 1.847 3.481 1.835 3.559 C 1.823 3.637 1.837 3.717 1.874 3.786 L 2.847 5.586 C 2.595 6.036 2.393 6.513 2.246 7.008 L 0.258 7.608 C 0.184 7.631 0.119 7.677 0.072 7.74 C 0.026 7.802 0 7.878 0 7.956 L 0 9.984 C 0 10.062 0.026 10.138 0.072 10.2 C 0.119 10.263 0.184 10.309 0.258 10.332 L 2.258 10.932 C 2.407 11.419 2.608 11.887 2.859 12.33 L 1.874 14.214 C 1.837 14.284 1.823 14.363 1.835 14.441 C 1.847 14.519 1.884 14.591 1.94 14.646 L 3.375 16.08 C 3.431 16.136 3.503 16.173 3.581 16.185 C 3.658 16.196 3.738 16.183 3.808 16.146 L 5.664 15.156 C 6.103 15.393 6.566 15.582 7.045 15.72 L 7.645 17.742 C 7.668 17.816 7.715 17.882 7.777 17.928 C 7.84 17.974 7.916 18 7.994 18 L 10.024 18 C 10.102 18 10.178 17.974 10.24 17.928 C 10.303 17.882 10.349 17.816 10.372 17.742 L 10.973 15.714 C 11.448 15.575 11.907 15.386 12.342 15.15 L 14.21 16.146 C 14.279 16.183 14.359 16.196 14.437 16.185 C 14.515 16.173 14.587 16.136 14.642 16.08 L 16.078 14.646 C 16.134 14.591 16.17 14.519 16.182 14.441 C 16.194 14.363 16.181 14.284 16.144 14.214 L 15.147 12.354 C 15.385 11.918 15.577 11.457 15.717 10.98 L 17.741 10.38 C 17.816 10.357 17.881 10.311 17.928 10.248 C 17.974 10.186 17.999 10.11 18 10.032 L 18 7.986 C 18.003 7.911 17.984 7.838 17.944 7.774 C 17.904 7.711 17.846 7.661 17.777 7.632 Z M 9.027 12.3 C 8.374 12.3 7.735 12.106 7.192 11.744 C 6.648 11.381 6.225 10.866 5.975 10.263 C 5.725 9.66 5.66 8.996 5.787 8.356 C 5.915 7.716 6.229 7.128 6.691 6.667 C 7.153 6.205 7.742 5.891 8.382 5.763 C 9.023 5.636 9.687 5.701 10.291 5.951 C 10.894 6.201 11.41 6.624 11.773 7.167 C 12.136 7.709 12.33 8.347 12.33 9 C 12.33 9.875 11.982 10.715 11.363 11.333 C 10.743 11.952 9.903 12.3 9.027 12.3 Z" fill="currentColor" fill-rule="nonzero"/>
</svg>
