<svg xmlns="http://www.w3.org/2000/svg" width="14" height="13.970" viewBox="0 0 14 13.970" fill="none">
  <path d="M 2.722 0 C 1.744 0.054 1.126 0.21 0.684 0.653 C 0 1.337 0 2.437 0 4.636 L 0 9.303 C 0 11.503 0 12.603 0.684 13.287 C 1.367 13.97 2.467 13.97 4.667 13.97 L 9.333 13.97 C 11.533 13.97 12.633 13.97 13.316 13.287 C 14 12.602 14 11.503 14 9.303 L 14 4.636 C 14 2.437 14 1.337 13.316 0.653 C 12.874 0.21 12.256 0.054 11.278 0 L 11.278 0.36 C 11.278 0.979 11.032 1.572 10.594 2.01 C 10.157 2.448 9.563 2.693 8.944 2.693 L 5.056 2.693 C 4.437 2.693 3.843 2.448 3.406 2.01 C 2.968 1.572 2.722 0.979 2.722 0.36 L 2.722 0 Z M 3.111 4.443 C 2.956 4.443 2.808 4.505 2.699 4.614 C 2.589 4.724 2.528 4.872 2.528 5.027 C 2.528 5.181 2.589 5.33 2.699 5.439 C 2.808 5.549 2.956 5.61 3.111 5.61 L 3.5 5.61 C 3.655 5.61 3.803 5.549 3.912 5.439 C 4.022 5.33 4.083 5.181 4.083 5.027 C 4.083 4.872 4.022 4.724 3.912 4.614 C 3.803 4.505 3.655 4.443 3.5 4.443 L 3.111 4.443 Z M 5.833 4.443 C 5.679 4.443 5.53 4.505 5.421 4.614 C 5.311 4.724 5.25 4.872 5.25 5.027 C 5.25 5.181 5.311 5.33 5.421 5.439 C 5.53 5.549 5.679 5.61 5.833 5.61 L 10.889 5.61 C 11.044 5.61 11.192 5.549 11.301 5.439 C 11.411 5.33 11.472 5.181 11.472 5.027 C 11.472 4.872 11.411 4.724 11.301 4.614 C 11.192 4.505 11.044 4.443 10.889 4.443 L 5.833 4.443 Z M 3.111 7.166 C 2.956 7.166 2.808 7.227 2.699 7.337 C 2.589 7.446 2.528 7.594 2.528 7.749 C 2.528 7.904 2.589 8.052 2.699 8.161 C 2.808 8.271 2.956 8.332 3.111 8.332 L 3.5 8.332 C 3.655 8.332 3.803 8.271 3.912 8.161 C 4.022 8.052 4.083 7.904 4.083 7.749 C 4.083 7.594 4.022 7.446 3.912 7.337 C 3.803 7.227 3.655 7.166 3.5 7.166 L 3.111 7.166 Z M 5.833 7.166 C 5.679 7.166 5.53 7.227 5.421 7.337 C 5.311 7.446 5.25 7.594 5.25 7.749 C 5.25 7.904 5.311 8.052 5.421 8.161 C 5.53 8.271 5.679 8.332 5.833 8.332 L 10.889 8.332 C 11.044 8.332 11.192 8.271 11.301 8.161 C 11.411 8.052 11.472 7.904 11.472 7.749 C 11.472 7.594 11.411 7.446 11.301 7.337 C 11.192 7.227 11.044 7.166 10.889 7.166 L 5.833 7.166 Z M 3.111 9.888 C 2.956 9.888 2.808 9.949 2.699 10.059 C 2.589 10.168 2.528 10.317 2.528 10.471 C 2.528 10.626 2.589 10.774 2.699 10.884 C 2.808 10.993 2.956 11.055 3.111 11.055 L 3.5 11.055 C 3.655 11.055 3.803 10.993 3.912 10.884 C 4.022 10.774 4.083 10.626 4.083 10.471 C 4.083 10.317 4.022 10.168 3.912 10.059 C 3.803 9.949 3.655 9.888 3.5 9.888 L 3.111 9.888 Z M 5.833 9.888 C 5.679 9.888 5.53 9.949 5.421 10.059 C 5.311 10.168 5.25 10.317 5.25 10.471 C 5.25 10.626 5.311 10.774 5.421 10.884 C 5.53 10.993 5.679 11.055 5.833 11.055 L 10.889 11.055 C 11.044 11.055 11.192 10.993 11.301 10.884 C 11.411 10.774 11.472 10.626 11.472 10.471 C 11.472 10.317 11.411 10.168 11.301 10.059 C 11.192 9.949 11.044 9.888 10.889 9.888 L 5.833 9.888 Z" fill="currentColor" fill-rule="evenodd"/>
</svg>
