<svg xmlns="http://www.w3.org/2000/svg" width="20" height="18.174" viewBox="0 0 20 18.174" fill="none">
  <path d="M 0.913 0 L 9.522 0 L 9.522 2.87 L 8.565 2.87 L 8.565 10.043 C 8.565 11.892 7.066 13.391 5.217 13.391 C 3.368 13.391 1.87 11.892 1.87 10.043 L 1.87 2.87 L 0.913 2.87 L 0.913 0 Z M 6.652 1.913 L 3.783 1.913 L 3.783 5.261 C 3.783 6.053 4.425 6.696 5.217 6.696 C 6.01 6.696 6.652 6.053 6.652 5.261 L 6.652 1.913 Z M 10.478 0 L 19.087 0 L 19.087 2.87 L 18.13 2.87 L 18.13 10.043 C 18.13 11.892 16.632 13.391 14.783 13.391 C 12.934 13.391 11.435 11.892 11.435 10.043 L 11.435 2.87 L 10.478 2.87 L 10.478 0 Z M 16.217 1.913 L 13.348 1.913 L 13.348 5.261 C 13.348 6.053 13.99 6.696 14.783 6.696 C 15.575 6.696 16.217 6.053 16.217 5.261 L 16.217 1.913 Z M 20 15.174 L 0 15.174 L 0 18.174 L 20 18.174 L 20 15.174 Z" fill="currentColor" fill-rule="evenodd"/>
</svg>
