<svg xmlns="http://www.w3.org/2000/svg" width="12.057" height="17.618" viewBox="0 0 12.057 17.618" fill="none">
  <path d="M 1.404 0 C 1.039 0 0.743 0.296 0.743 0.661 L 0.743 1.101 C 0.743 1.466 1.039 1.762 1.404 1.762 L 2.065 1.762 L 2.505 6.345 C 0.906 7.259 0.274 8.856 0.024 9.931 C -0.116 10.533 0.371 11.044 0.989 11.044 L 5.001 11.044 L 5.001 14.976 C 5.001 15.014 5.01 15.051 5.028 15.085 L 5.799 17.483 C 5.894 17.663 6.164 17.663 6.259 17.483 L 7.029 15.085 C 7.047 15.051 7.056 15.014 7.056 14.976 L 7.056 11.044 L 11.069 11.044 C 11.687 11.044 12.173 10.533 12.033 9.931 C 11.784 8.856 11.152 7.259 9.552 6.345 L 9.993 1.762 L 10.654 1.762 C 11.018 1.762 11.314 1.466 11.314 1.101 L 11.314 0.661 C 11.314 0.296 11.018 0 10.654 0 L 1.404 0 Z" fill="currentColor" fill-rule="nonzero"/>
</svg>
