<svg xmlns="http://www.w3.org/2000/svg" width="18.667" height="18" viewBox="0 0 18.667 18" fill="none">
  <path d="M 15.077 3.014 C 15.077 1.349 13.727 0 12.063 0 C 10.398 0 9.049 1.349 9.049 3.014 L 9.049 4.03 C 9.049 4.073 9.05 4.116 9.051 4.158 C 10.41 4.985 11.317 6.48 11.317 8.186 L 11.317 9.775 C 11.317 10.753 11.019 11.661 10.509 12.414 C 10.989 12.426 11.506 12.433 12.061 12.433 C 15.359 12.433 17.315 12.188 18.164 12.048 C 18.461 12 18.667 11.741 18.667 11.44 L 18.667 10.849 C 18.667 9.516 17.714 8.373 16.394 8.19 C 15.606 8.081 14.699 7.971 13.819 7.899 L 13.501 6.679 C 14.439 6.169 15.077 5.174 15.077 4.03 L 15.077 3.014 Z" fill="currentColor" fill-rule="nonzero"/>
  <path d="M 6.604 5.566 C 8.268 5.566 9.618 6.915 9.618 8.58 L 9.618 9.596 C 9.618 10.739 8.981 11.734 8.042 12.245 L 8.36 13.465 C 9.24 13.537 10.147 13.647 10.935 13.756 C 12.255 13.938 13.208 15.081 13.208 16.414 L 13.208 17.006 C 13.208 17.307 13.002 17.565 12.706 17.614 C 11.857 17.755 9.902 18 6.604 18 C 3.306 18 1.351 17.755 0.502 17.614 C 0.206 17.565 0 17.307 0 17.006 L 0 16.414 C 0 15.081 0.953 13.938 2.273 13.756 C 3.057 13.647 3.959 13.538 4.836 13.466 L 5.131 12.226 C 4.212 11.71 3.59 10.725 3.59 9.596 L 3.59 8.58 C 3.59 6.915 4.939 5.566 6.604 5.566 Z" fill="currentColor" fill-rule="nonzero"/>
</svg>
