<svg xmlns="http://www.w3.org/2000/svg" width="2.429" height="11.665" viewBox="0 0 2.429 11.665" fill="none">
  <path d="M 2.165 0 L 2.165 4.57 C 2.165 5.055 2.141 5.531 2.093 6 C 2.045 6.463 1.984 6.956 1.909 7.478 L 0.567 7.478 C 0.493 6.956 0.431 6.463 0.383 6 C 0.336 5.531 0.312 5.055 0.312 4.57 L 0.312 0 L 2.165 0 Z M 0 10.466 C 0 10.301 0.029 10.144 0.088 9.995 C 0.152 9.846 0.237 9.718 0.344 9.611 C 0.455 9.505 0.586 9.42 0.735 9.356 C 0.884 9.292 1.044 9.26 1.214 9.26 C 1.38 9.26 1.537 9.292 1.686 9.356 C 1.835 9.42 1.963 9.505 2.069 9.611 C 2.181 9.718 2.269 9.846 2.333 9.995 C 2.397 10.144 2.429 10.301 2.429 10.466 C 2.429 10.637 2.397 10.796 2.333 10.946 C 2.269 11.089 2.181 11.215 2.069 11.321 C 1.963 11.428 1.835 11.51 1.686 11.569 C 1.537 11.633 1.38 11.665 1.214 11.665 C 1.044 11.665 0.884 11.633 0.735 11.569 C 0.586 11.51 0.455 11.428 0.344 11.321 C 0.237 11.215 0.152 11.089 0.088 10.946 C 0.029 10.796 0 10.637 0 10.466 Z" fill="currentColor" fill-rule="nonzero"/>
</svg>
