<svg xmlns="http://www.w3.org/2000/svg" width="9.669" height="9.669" viewBox="0 0 9.669 9.669" fill="none">
  <path d="M 0.117 1.546 C -0.039 1.39 -0.039 1.136 0.117 0.98 L 0.98 0.117 C 1.136 -0.039 1.39 -0.039 1.546 0.117 L 9.551 8.123 C 9.708 8.279 9.708 8.532 9.551 8.689 L 8.689 9.551 C 8.532 9.708 8.279 9.708 8.123 9.551 L 0.117 1.546 Z" fill="currentColor" fill-rule="nonzero"/>
  <path d="M 8.123 0.117 C 8.279 -0.039 8.532 -0.039 8.689 0.117 L 9.551 0.98 C 9.708 1.136 9.708 1.39 9.551 1.546 L 1.546 9.551 C 1.39 9.708 1.136 9.708 0.98 9.551 L 0.117 8.689 C -0.039 8.532 -0.039 8.279 0.117 8.123 L 8.123 0.117 Z" fill="currentColor" fill-rule="nonzero"/>
</svg>
